<svg width="204" height="32" viewBox="0 0 204 32" fill="none" xmlns="http://www.w3.org/2000/svg">
<g clip-path="url(#clip0_202_159)">
<path d="M33.5348 0.751221H6.47098C4.37195 0.751221 3.01813 2.95123 3.99934 4.77234L6.70696 9.82013H1.80094C0.80732 9.82013 0 10.6146 0 11.5924C0 11.8857 0.0745218 12.1668 0.211145 12.4235L8.91778 28.6424C9.38975 29.5102 10.4827 29.8402 11.3522 29.3757C11.6751 29.2046 11.9359 28.9479 12.0974 28.6424L14.4572 24.2668L17.4257 29.7913C18.469 31.7346 21.3008 31.7346 22.3441 29.7913L35.9319 4.67456C36.8883 2.89011 35.5718 0.751221 33.5348 0.751221ZM21.3753 11.4824L15.5254 22.3235C15.2149 22.8979 14.4821 23.1179 13.8983 22.8124C13.6872 22.7024 13.5133 22.5313 13.4015 22.3235L7.61365 11.5312C7.30314 10.9568 7.5267 10.2357 8.11046 9.93013C8.28434 9.84457 8.47065 9.79568 8.66937 9.79568H20.3445C20.9903 9.79568 21.512 10.309 21.512 10.9446C21.512 11.1279 21.4623 11.3235 21.3753 11.4824ZM62.3251 12.4112H59.3691V22.3968C59.3691 22.5802 59.2076 22.739 59.0213 22.739H56.7359C56.5496 22.739 56.3882 22.5802 56.3882 22.3968V12.4112H53.4073C53.221 12.4235 53.072 12.2768 53.0595 12.0935V12.0812V10.309C53.0595 10.1257 53.2086 9.97902 53.3949 9.97902H53.4073H62.3251C62.5114 9.96679 62.6853 10.1135 62.6853 10.309V12.0812C62.6729 12.2646 62.5114 12.4112 62.3251 12.4112ZM71.8266 22.6657C71.218 22.7513 70.1871 22.8857 68.3117 22.8857C66.0636 22.8857 64.0764 22.3235 64.0764 19.1946V13.499C64.0764 10.3824 66.076 9.83235 68.3241 9.83235C70.1996 9.83235 71.218 9.96679 71.8266 10.0524C72.075 10.089 72.1744 10.1746 72.1744 10.3946V11.9957C72.1744 12.179 72.0129 12.3379 71.8266 12.3379H68.1502C67.3305 12.3379 67.0324 12.6068 67.0324 13.499V15.0635H71.6776C71.8639 15.0635 72.0253 15.2224 72.0253 15.4057V17.0313C72.0253 17.2146 71.8639 17.3735 71.6776 17.3735H67.0324V19.1946C67.0324 20.0868 67.3305 20.3557 68.1502 20.3557H71.8266C72.0129 20.3557 72.1744 20.5146 72.1744 20.6979V22.299C72.1744 22.519 72.075 22.629 71.8266 22.6657ZM84.9797 22.7268H82.21C81.9864 22.7268 81.8746 22.6535 81.7629 22.4702L79.3533 18.7179L77.1798 22.3846C77.0556 22.5924 76.9314 22.7268 76.7451 22.7268H74.1616C73.9877 22.7268 73.9008 22.629 73.9008 22.5068C73.9008 22.4702 73.9132 22.4213 73.9381 22.3846L77.7138 16.1879L73.9008 10.309C73.876 10.2724 73.8635 10.2479 73.8635 10.2112C73.876 10.0768 73.9877 9.97902 74.1244 9.99124H76.9314C77.1177 9.99124 77.2667 10.1624 77.3661 10.3212L79.6017 13.7801L81.7629 10.3212C81.8498 10.1624 82.0113 9.99124 82.1976 9.99124H84.781C84.9176 9.99124 85.0294 10.089 85.0418 10.2112C85.0418 10.2479 85.0294 10.2846 85.0046 10.309L81.2039 16.2246L85.166 22.3846C85.1909 22.4335 85.2157 22.4946 85.2157 22.5557C85.2033 22.6657 85.1163 22.7268 84.9797 22.7268ZM51.3455 10.0157C51.3704 10.0157 51.3828 10.0157 51.4076 10.0279C51.5567 10.0646 51.6436 10.199 51.6064 10.3457C51.6064 10.3457 48.5882 20.8813 48.5385 21.0157C48.1287 22.2379 47.0605 22.8735 45.8558 22.8735C44.5765 22.8735 43.5828 22.2746 43.173 21.0157C43.1357 20.9057 40.0431 10.3457 40.0431 10.3457C40.0431 10.3212 40.0306 10.309 40.0306 10.2846C40.0306 10.1379 40.1548 10.0157 40.3039 10.0157H42.8004C42.9246 10.0157 43.0364 10.1012 43.0612 10.2235L45.5949 19.439C45.6322 19.6224 45.6819 19.6957 45.8433 19.6957C46.0048 19.6957 46.0545 19.6224 46.0918 19.439L48.6255 10.2235C48.6503 10.1012 48.7621 10.0157 48.8863 10.0157H51.3455Z" fill="#E31C58"/>
</g>
<path d="M98.7088 0.751221H97.2158V31.2488H98.7088V0.751221Z" fill="#E31C58"/>
<path d="M111.885 18.5V8.98H113.271V18.5H111.885ZM112.389 18.5V17.268H117.765V18.5H112.389ZM120.868 18.64C120.439 18.64 120.056 18.57 119.72 18.43C119.384 18.2807 119.118 18.0613 118.922 17.772C118.735 17.4827 118.642 17.1233 118.642 16.694C118.642 16.3113 118.717 15.994 118.866 15.742C119.025 15.4807 119.235 15.2707 119.496 15.112C119.767 14.944 120.065 14.8133 120.392 14.72C120.728 14.6267 121.073 14.5567 121.428 14.51L123.612 14.202L123.668 15.154L121.638 15.448C121.339 15.4947 121.059 15.5553 120.798 15.63C120.546 15.7047 120.345 15.8167 120.196 15.966C120.047 16.106 119.972 16.3113 119.972 16.582C119.972 16.918 120.079 17.1607 120.294 17.31C120.518 17.4593 120.803 17.534 121.148 17.534C121.503 17.534 121.82 17.464 122.1 17.324C122.38 17.1747 122.618 16.9833 122.814 16.75C123.019 16.5167 123.173 16.2647 123.276 15.994C123.388 15.714 123.444 15.4433 123.444 15.182L123.43 14.3C123.43 13.8987 123.36 13.572 123.22 13.32C123.089 13.0587 122.898 12.8673 122.646 12.746C122.403 12.6247 122.114 12.564 121.778 12.564C121.358 12.564 120.989 12.6807 120.672 12.914C120.355 13.1473 120.159 13.502 120.084 13.978L118.88 13.558C119.001 12.914 119.319 12.4007 119.832 12.018C120.355 11.626 121.022 11.43 121.834 11.43C122.422 11.43 122.931 11.542 123.36 11.766C123.789 11.9807 124.121 12.3027 124.354 12.732C124.597 13.1613 124.718 13.7027 124.718 14.356V18.5H123.5V16.428H123.472C123.369 16.9227 123.187 17.3333 122.926 17.66C122.674 17.9867 122.371 18.234 122.016 18.402C121.661 18.5607 121.279 18.64 120.868 18.64ZM126.701 18.5V11.584H127.919V13.334H127.961C128.054 12.9047 128.199 12.55 128.395 12.27C128.591 11.99 128.838 11.78 129.137 11.64C129.435 11.5 129.776 11.43 130.159 11.43C130.541 11.43 130.882 11.486 131.181 11.598C131.479 11.71 131.731 11.8827 131.937 12.116C132.142 12.34 132.296 12.6293 132.399 12.984C132.511 13.3293 132.567 13.74 132.567 14.216V18.5H131.279V14.286C131.279 13.9313 131.218 13.628 131.097 13.376C130.985 13.1147 130.812 12.9187 130.579 12.788C130.345 12.648 130.051 12.578 129.697 12.578C129.127 12.578 128.698 12.732 128.409 13.04C128.129 13.3387 127.989 13.754 127.989 14.286V18.5H126.701ZM137.058 21.23C136.517 21.23 136.041 21.1973 135.63 21.132C135.219 21.0667 134.874 20.964 134.594 20.824C134.314 20.6933 134.104 20.5253 133.964 20.32C133.824 20.1147 133.754 19.872 133.754 19.592C133.754 19.3027 133.833 19.0553 133.992 18.85C134.151 18.654 134.393 18.4953 134.72 18.374C135.056 18.2527 135.49 18.178 136.022 18.15L136.05 18.234C135.845 18.262 135.667 18.318 135.518 18.402C135.369 18.4767 135.252 18.57 135.168 18.682C135.093 18.8033 135.056 18.9433 135.056 19.102C135.056 19.3353 135.135 19.5267 135.294 19.676C135.462 19.8347 135.7 19.9513 136.008 20.026C136.316 20.1007 136.685 20.138 137.114 20.138C137.795 20.138 138.351 20.04 138.78 19.844C139.219 19.6573 139.438 19.3773 139.438 19.004C139.438 18.7333 139.335 18.5327 139.13 18.402C138.925 18.2713 138.584 18.2013 138.108 18.192C137.959 18.192 137.8 18.1967 137.632 18.206C137.464 18.206 137.291 18.2107 137.114 18.22C136.937 18.22 136.764 18.2247 136.596 18.234C136.428 18.234 136.269 18.234 136.12 18.234C135.915 18.234 135.723 18.2247 135.546 18.206C135.378 18.178 135.229 18.1407 135.098 18.094C134.865 18.01 134.683 17.8887 134.552 17.73C134.421 17.5713 134.356 17.3707 134.356 17.128C134.356 16.8947 134.426 16.694 134.566 16.526C134.715 16.358 134.93 16.2273 135.21 16.134C135.49 16.0407 135.84 15.994 136.26 15.994L136.274 16.064C136.087 16.0827 135.938 16.1247 135.826 16.19C135.723 16.246 135.649 16.316 135.602 16.4C135.555 16.484 135.532 16.5727 135.532 16.666C135.532 16.806 135.583 16.9133 135.686 16.988C135.789 17.0627 135.957 17.1047 136.19 17.114C136.302 17.114 136.442 17.114 136.61 17.114C136.787 17.1047 136.974 17.0953 137.17 17.086C137.375 17.0767 137.576 17.072 137.772 17.072C137.968 17.0627 138.15 17.058 138.318 17.058C138.869 17.058 139.321 17.1233 139.676 17.254C140.04 17.3753 140.311 17.5667 140.488 17.828C140.675 18.0893 140.768 18.4253 140.768 18.836C140.768 19.368 140.609 19.8113 140.292 20.166C139.975 20.5207 139.536 20.7867 138.976 20.964C138.416 21.1413 137.777 21.23 137.058 21.23ZM137.044 15.126C137.529 15.126 137.889 15.0187 138.122 14.804C138.355 14.58 138.472 14.2673 138.472 13.866C138.472 13.5953 138.421 13.3667 138.318 13.18C138.215 12.9933 138.057 12.8533 137.842 12.76C137.637 12.6573 137.371 12.606 137.044 12.606C136.559 12.606 136.19 12.718 135.938 12.942C135.686 13.1567 135.56 13.4647 135.56 13.866C135.56 14.1273 135.616 14.356 135.728 14.552C135.84 14.7387 136.003 14.8833 136.218 14.986C136.442 15.0793 136.717 15.126 137.044 15.126ZM137.086 16.134C136.554 16.134 136.069 16.0547 135.63 15.896C135.201 15.728 134.86 15.476 134.608 15.14C134.356 14.804 134.23 14.3747 134.23 13.852C134.23 13.4507 134.337 13.082 134.552 12.746C134.767 12.4007 135.117 12.1207 135.602 11.906C136.087 11.6913 136.727 11.584 137.52 11.584H140.446V12.732H140.138C139.961 12.5267 139.718 12.3773 139.41 12.284C139.111 12.1813 138.631 12.13 137.968 12.13L137.954 12.158C138.43 12.2607 138.799 12.4053 139.06 12.592C139.331 12.7693 139.517 12.9747 139.62 13.208C139.732 13.432 139.788 13.6653 139.788 13.908C139.788 14.3653 139.671 14.762 139.438 15.098C139.205 15.434 138.883 15.6907 138.472 15.868C138.071 16.0453 137.609 16.134 137.086 16.134ZM147.671 11.584V18.5H146.453V16.764H146.425C146.331 17.184 146.187 17.5387 145.991 17.828C145.795 18.108 145.547 18.318 145.249 18.458C144.95 18.598 144.605 18.668 144.213 18.668C143.83 18.668 143.489 18.612 143.191 18.5C142.892 18.388 142.64 18.2153 142.435 17.982C142.229 17.7487 142.071 17.4593 141.959 17.114C141.856 16.7593 141.805 16.344 141.805 15.868V11.584H143.093V15.798C143.093 16.1527 143.149 16.4607 143.261 16.722C143.382 16.974 143.559 17.17 143.793 17.31C144.026 17.4407 144.32 17.506 144.675 17.506C145.253 17.506 145.683 17.3567 145.963 17.058C146.252 16.75 146.397 16.33 146.397 15.798V11.584H147.671ZM151.63 18.64C151.2 18.64 150.818 18.57 150.482 18.43C150.146 18.2807 149.88 18.0613 149.684 17.772C149.497 17.4827 149.404 17.1233 149.404 16.694C149.404 16.3113 149.478 15.994 149.628 15.742C149.786 15.4807 149.996 15.2707 150.258 15.112C150.528 14.944 150.827 14.8133 151.154 14.72C151.49 14.6267 151.835 14.5567 152.19 14.51L154.374 14.202L154.43 15.154L152.4 15.448C152.101 15.4947 151.821 15.5553 151.56 15.63C151.308 15.7047 151.107 15.8167 150.958 15.966C150.808 16.106 150.734 16.3113 150.734 16.582C150.734 16.918 150.841 17.1607 151.056 17.31C151.28 17.4593 151.564 17.534 151.91 17.534C152.264 17.534 152.582 17.464 152.862 17.324C153.142 17.1747 153.38 16.9833 153.576 16.75C153.781 16.5167 153.935 16.2647 154.038 15.994C154.15 15.714 154.206 15.4433 154.206 15.182L154.192 14.3C154.192 13.8987 154.122 13.572 153.982 13.32C153.851 13.0587 153.66 12.8673 153.408 12.746C153.165 12.6247 152.876 12.564 152.54 12.564C152.12 12.564 151.751 12.6807 151.434 12.914C151.116 13.1473 150.92 13.502 150.846 13.978L149.642 13.558C149.763 12.914 150.08 12.4007 150.594 12.018C151.116 11.626 151.784 11.43 152.596 11.43C153.184 11.43 153.692 11.542 154.122 11.766C154.551 11.9807 154.882 12.3027 155.116 12.732C155.358 13.1613 155.48 13.7027 155.48 14.356V18.5H154.262V16.428H154.234C154.131 16.9227 153.949 17.3333 153.688 17.66C153.436 17.9867 153.132 18.234 152.778 18.402C152.423 18.5607 152.04 18.64 151.63 18.64ZM160.122 21.23C159.581 21.23 159.105 21.1973 158.694 21.132C158.284 21.0667 157.938 20.964 157.658 20.824C157.378 20.6933 157.168 20.5253 157.028 20.32C156.888 20.1147 156.818 19.872 156.818 19.592C156.818 19.3027 156.898 19.0553 157.056 18.85C157.215 18.654 157.458 18.4953 157.784 18.374C158.12 18.2527 158.554 18.178 159.086 18.15L159.114 18.234C158.909 18.262 158.732 18.318 158.582 18.402C158.433 18.4767 158.316 18.57 158.232 18.682C158.158 18.8033 158.12 18.9433 158.12 19.102C158.12 19.3353 158.2 19.5267 158.358 19.676C158.526 19.8347 158.764 19.9513 159.072 20.026C159.38 20.1007 159.749 20.138 160.178 20.138C160.86 20.138 161.415 20.04 161.844 19.844C162.283 19.6573 162.502 19.3773 162.502 19.004C162.502 18.7333 162.4 18.5327 162.194 18.402C161.989 18.2713 161.648 18.2013 161.172 18.192C161.023 18.192 160.864 18.1967 160.696 18.206C160.528 18.206 160.356 18.2107 160.178 18.22C160.001 18.22 159.828 18.2247 159.66 18.234C159.492 18.234 159.334 18.234 159.184 18.234C158.979 18.234 158.788 18.2247 158.61 18.206C158.442 18.178 158.293 18.1407 158.162 18.094C157.929 18.01 157.747 17.8887 157.616 17.73C157.486 17.5713 157.42 17.3707 157.42 17.128C157.42 16.8947 157.49 16.694 157.63 16.526C157.78 16.358 157.994 16.2273 158.274 16.134C158.554 16.0407 158.904 15.994 159.324 15.994L159.338 16.064C159.152 16.0827 159.002 16.1247 158.89 16.19C158.788 16.246 158.713 16.316 158.666 16.4C158.62 16.484 158.596 16.5727 158.596 16.666C158.596 16.806 158.648 16.9133 158.75 16.988C158.853 17.0627 159.021 17.1047 159.254 17.114C159.366 17.114 159.506 17.114 159.674 17.114C159.852 17.1047 160.038 17.0953 160.234 17.086C160.44 17.0767 160.64 17.072 160.836 17.072C161.032 17.0627 161.214 17.058 161.382 17.058C161.933 17.058 162.386 17.1233 162.74 17.254C163.104 17.3753 163.375 17.5667 163.552 17.828C163.739 18.0893 163.832 18.4253 163.832 18.836C163.832 19.368 163.674 19.8113 163.356 20.166C163.039 20.5207 162.6 20.7867 162.04 20.964C161.48 21.1413 160.841 21.23 160.122 21.23ZM160.108 15.126C160.594 15.126 160.953 15.0187 161.186 14.804C161.42 14.58 161.536 14.2673 161.536 13.866C161.536 13.5953 161.485 13.3667 161.382 13.18C161.28 12.9933 161.121 12.8533 160.906 12.76C160.701 12.6573 160.435 12.606 160.108 12.606C159.623 12.606 159.254 12.718 159.002 12.942C158.75 13.1567 158.624 13.4647 158.624 13.866C158.624 14.1273 158.68 14.356 158.792 14.552C158.904 14.7387 159.068 14.8833 159.282 14.986C159.506 15.0793 159.782 15.126 160.108 15.126ZM160.15 16.134C159.618 16.134 159.133 16.0547 158.694 15.896C158.265 15.728 157.924 15.476 157.672 15.14C157.42 14.804 157.294 14.3747 157.294 13.852C157.294 13.4507 157.402 13.082 157.616 12.746C157.831 12.4007 158.181 12.1207 158.666 11.906C159.152 11.6913 159.791 11.584 160.584 11.584H163.51V12.732H163.202C163.025 12.5267 162.782 12.3773 162.474 12.284C162.176 12.1813 161.695 12.13 161.032 12.13L161.018 12.158C161.494 12.2607 161.863 12.4053 162.124 12.592C162.395 12.7693 162.582 12.9747 162.684 13.208C162.796 13.432 162.852 13.6653 162.852 13.908C162.852 14.3653 162.736 14.762 162.502 15.098C162.269 15.434 161.947 15.6907 161.536 15.868C161.135 16.0453 160.673 16.134 160.15 16.134ZM167.747 18.64C167.215 18.64 166.744 18.556 166.333 18.388C165.923 18.22 165.577 17.982 165.297 17.674C165.017 17.366 164.807 16.9973 164.667 16.568C164.527 16.1387 164.457 15.6627 164.457 15.14C164.457 14.412 164.588 13.7727 164.849 13.222C165.111 12.662 165.489 12.2233 165.983 11.906C166.487 11.5887 167.094 11.43 167.803 11.43C168.429 11.43 168.965 11.5607 169.413 11.822C169.861 12.0833 170.202 12.466 170.435 12.97C170.678 13.4647 170.799 14.0713 170.799 14.79C170.799 14.9113 170.795 14.9907 170.785 15.028C170.785 15.056 170.785 15.0887 170.785 15.126H165.619V14.23H169.777L169.427 14.58C169.455 14.1507 169.409 13.782 169.287 13.474C169.166 13.1567 168.975 12.914 168.713 12.746C168.452 12.5687 168.125 12.48 167.733 12.48C167.313 12.48 166.959 12.5827 166.669 12.788C166.389 12.984 166.175 13.2733 166.025 13.656C165.876 14.0293 165.801 14.4913 165.801 15.042C165.801 15.434 165.839 15.784 165.913 16.092C165.997 16.4 166.119 16.666 166.277 16.89C166.445 17.1047 166.651 17.2727 166.893 17.394C167.145 17.506 167.444 17.562 167.789 17.562C168.097 17.562 168.373 17.5153 168.615 17.422C168.858 17.3193 169.063 17.1653 169.231 16.96C169.399 16.7547 169.511 16.4933 169.567 16.176L170.757 16.47C170.673 16.918 170.496 17.3053 170.225 17.632C169.964 17.9493 169.623 18.1967 169.203 18.374C168.783 18.5513 168.298 18.64 167.747 18.64ZM182.275 18.5V8.98H183.661V18.5H182.275ZM176.115 18.5V8.98H177.501V18.5H176.115ZM176.521 14.202V13.054H182.891V14.202H176.521ZM191.544 11.584V18.5H190.326V16.764H190.298C190.204 17.184 190.06 17.5387 189.864 17.828C189.668 18.108 189.42 18.318 189.122 18.458C188.823 18.598 188.478 18.668 188.086 18.668C187.703 18.668 187.362 18.612 187.064 18.5C186.765 18.388 186.513 18.2153 186.308 17.982C186.102 17.7487 185.944 17.4593 185.832 17.114C185.729 16.7593 185.678 16.344 185.678 15.868V11.584H186.966V15.798C186.966 16.1527 187.022 16.4607 187.134 16.722C187.255 16.974 187.432 17.17 187.666 17.31C187.899 17.4407 188.193 17.506 188.548 17.506C189.126 17.506 189.556 17.3567 189.836 17.058C190.125 16.75 190.27 16.33 190.27 15.798V11.584H191.544ZM197.141 18.64C196.768 18.64 196.432 18.5607 196.133 18.402C195.834 18.2433 195.578 18.0053 195.363 17.688C195.148 17.3613 194.971 16.9553 194.831 16.47H194.803V18.5H193.529V8.98H194.817V13.46H194.845C194.966 13.0307 195.134 12.6667 195.349 12.368C195.573 12.0693 195.844 11.8453 196.161 11.696C196.478 11.5373 196.838 11.458 197.239 11.458C197.64 11.458 198.014 11.5327 198.359 11.682C198.704 11.822 199.008 12.0413 199.269 12.34C199.53 12.6293 199.731 12.998 199.871 13.446C200.02 13.8847 200.095 14.4027 200.095 15C200.095 15.5973 200.016 16.1247 199.857 16.582C199.708 17.0393 199.498 17.422 199.227 17.73C198.956 18.0287 198.644 18.2573 198.289 18.416C197.934 18.5653 197.552 18.64 197.141 18.64ZM196.791 17.506C197.174 17.506 197.51 17.4127 197.799 17.226C198.088 17.0393 198.317 16.764 198.485 16.4C198.653 16.0267 198.737 15.56 198.737 15C198.737 14.4587 198.653 14.0107 198.485 13.656C198.326 13.3013 198.102 13.0353 197.813 12.858C197.524 12.6713 197.183 12.578 196.791 12.578C196.408 12.578 196.068 12.6713 195.769 12.858C195.48 13.0353 195.251 13.3013 195.083 13.656C194.924 14.0107 194.845 14.4587 194.845 15C194.845 15.5507 194.929 16.0127 195.097 16.386C195.265 16.7593 195.494 17.0393 195.783 17.226C196.082 17.4127 196.418 17.506 196.791 17.506Z" fill="#E31C58"/>
<defs>
<clipPath id="clip0_202_159">
<rect width="85.2157" height="30.4976" fill="white" transform="translate(0 0.751221)"/>
</clipPath>
</defs>
</svg>
