<svg width="24" height="24" viewBox="0 0 24 24" fill="none" xmlns="http://www.w3.org/2000/svg">
<path d="M11 22C10.45 22 9.97917 21.8042 9.5875 21.4125C9.19583 21.0208 9 20.55 9 20V16H6C5.45 16 4.97917 15.8042 4.5875 15.4125C4.19583 15.0208 4 14.55 4 14V7C4 5.9 4.39167 4.95833 5.175 4.175C5.95833 3.39167 6.9 3 8 3H20V14C20 14.55 19.8042 15.0208 19.4125 15.4125C19.0208 15.8042 18.55 16 18 16H15V20C15 20.55 14.8042 21.0208 14.4125 21.4125C14.0208 21.8042 13.55 22 13 22H11ZM6 10H18V5H17V9H15V5H14V7H12V5H8C7.45 5 6.97917 5.19583 6.5875 5.5875C6.19583 5.97917 6 6.45 6 7V10ZM6 14H18V12H6V14Z" fill="black"/>
</svg>
